<svg xmlns="http://www.w3.org/2000/svg"  viewBox="0 0 14 14"><defs><clipPath id="dcaca"><path d="M0 14.12V.108h13.941V14.12z"/></clipPath></defs><g><g><g><g><path d="M0 14.12V.108h13.941V14.12z"/></g><g clip-path="url(#dcaca)"><path  d="M12.074 11.877c-.003 0-.003.003 0 0-.115.124-.232.236-.36.36a7.75 7.75 0 0 0-.567.588c-.297.318-.648.468-1.107.468-.044 0-.09 0-.135-.003-.874-.056-1.686-.398-2.296-.689A13.077 13.077 0 0 1 3.266 9.2C2.262 7.989 1.59 6.871 1.146 5.67.873 4.937.773 4.367.816 3.828c.03-.344.163-.63.407-.874L2.227 1.95c.144-.135.297-.209.447-.209.185 0 .335.112.43.206l.008.01c.18.167.35.34.53.526l.28.285.803.804c.312.312.312.6 0 .912-.085.086-.167.17-.253.253-.247.253-.483.489-.739.718-.006.006-.011.01-.014.015-.253.253-.206.5-.153.668l.008.027c.21.506.504.983.951 1.55l.003.003C5.34 8.72 6.197 9.5 7.141 10.097c.121.076.245.138.362.197.106.053.206.103.292.156l.035.02c.1.05.194.074.292.074.244 0 .397-.153.447-.203l1.006-1.007c.1-.1.26-.22.445-.22.182 0 .332.114.424.214l.005.006 1.622 1.622c.303.3.303.61.003.92zM11.02 8.778c-.285-.297-.63-.456-.994-.456-.362 0-.71.156-1.007.453l-.93.927c-.076-.041-.153-.08-.226-.117-.106-.054-.207-.104-.292-.157C6.7 8.875 5.908 8.154 5.15 7.221c-.368-.465-.615-.856-.795-1.253.242-.221.465-.45.683-.672.083-.082.165-.167.247-.25.618-.618.618-1.418 0-2.036l-.803-.804a12.637 12.637 0 0 1-.274-.28c-.176-.182-.362-.37-.553-.547-.285-.282-.627-.432-.986-.432s-.706.15-1 .432l-.006.006L.66 2.395a2.154 2.154 0 0 0-.639 1.368c-.07.86.183 1.66.377 2.184.477 1.286 1.189 2.478 2.251 3.755a13.853 13.853 0 0 0 4.612 3.611c.677.321 1.58.7 2.59.765.062.003.127.006.185.006.68 0 1.251-.244 1.699-.73.003-.006.008-.008.011-.014.153-.186.33-.354.515-.533.127-.12.256-.247.383-.38.291-.303.444-.656.444-1.018 0-.365-.156-.715-.453-1.01z"/></g><g clip-path="url(#dcaca)"><path d="M7.536 3.457c.77.13 1.471.495 2.03 1.054.56.559.922 1.26 1.054 2.03.033.195.2.33.392.33.023 0 .044-.003.067-.006a.398.398 0 0 0 .327-.46 4.538 4.538 0 0 0-1.274-2.456 4.538 4.538 0 0 0-2.458-1.275.4.4 0 0 0-.459.324.393.393 0 0 0 .32.459z"/></g><g clip-path="url(#dcaca)"><path  d="M13.928 6.291a7.47 7.47 0 0 0-2.098-4.047A7.47 7.47 0 0 0 7.783.146a.396.396 0 1 0-.13.783 6.687 6.687 0 0 1 3.617 1.875 6.667 6.667 0 0 1 1.875 3.617c.033.194.2.33.392.33.023 0 .044-.004.067-.007a.39.39 0 0 0 .324-.453z"/></g></g></g></g></svg>