<svg xmlns="http://www.w3.org/2000/svg" width="298" height="47" viewBox="0 0 298 47"><g><g><g><g><g><path fill="#fff" d="M68.714 23.248h11.669c-.03 1.619-.324 3.118-.88 4.5-.556 1.38-1.308 2.562-2.254 3.543-.945.981-2.086 1.748-3.421 2.299-1.336.55-2.777.827-4.325.827-2.104 0-3.999-.483-5.683-1.45-1.685-.965-3-2.306-3.946-4.021-.946-1.715-1.419-3.64-1.419-5.774 0-2.125.473-4.041 1.42-5.751a10.307 10.307 0 0 1 3.93-4.015c1.673-.965 3.553-1.449 5.637-1.449 2.62 0 4.922.742 6.905 2.224 1.982 1.482 3.211 3.381 3.687 5.698h-2.807c-.466-1.568-1.41-2.835-2.83-3.802-1.422-.965-3.053-1.449-4.894-1.449-2.408 0-4.386.8-5.933 2.398-1.549 1.599-2.323 3.647-2.323 6.146 0 2.53.764 4.59 2.292 6.184 1.527 1.593 3.516 2.39 5.964 2.39 1.993 0 3.71-.538 5.151-1.616 1.443-1.078 2.36-2.507 2.755-4.287h-8.695z"/></g><g><path fill="#fff" d="M91.658 19.409c1.497 0 2.77.432 3.817 1.297 1.047.865 1.712 2.041 1.995 3.528H85.816c.273-1.467.935-2.637 1.988-3.513 1.052-.875 2.337-1.312 3.854-1.312zm8.452 6.328c0-1.63-.346-3.113-1.039-4.454a7.96 7.96 0 0 0-2.981-3.195c-1.296-.788-2.773-1.183-4.432-1.183-1.599 0-3.052.38-4.362 1.138a8.118 8.118 0 0 0-3.081 3.149c-.744 1.34-1.116 2.83-1.116 4.469 0 1.649.372 3.141 1.116 4.476a8.128 8.128 0 0 0 3.08 3.141c1.31.76 2.764 1.14 4.363 1.14 1.821 0 3.432-.481 4.834-1.443 1.4-.961 2.46-2.306 3.178-4.036h-2.792a5.654 5.654 0 0 1-2.14 2.132c-.9.51-1.926.766-3.08.766-1.578 0-2.906-.47-3.983-1.411-1.077-.942-1.718-2.19-1.92-3.748h14.31c.03-.324.045-.638.045-.941z"/></g><g><path fill="#fff" d="M110.84 31.609h1.82v2.443h-2.17c-1.81 0-3.235-.523-4.271-1.57-1.037-1.047-1.556-2.481-1.556-4.302V19.65h-2.96v-.47l5.191-5.463h.41v3.55h5.266v2.383h-5.267v8.453c0 1.133.304 2 .91 2.602.608.603 1.483.903 2.627.903z"/></g><g><path fill="#fff" d="M140.506 12.292l-8.027 13.08v8.68h-2.808v-8.68l-7.966-13.08h2.974l6.404 10.516 6.434-10.516z"/></g><g><path fill="#fff" d="M142.813 25.66c0-1.8.582-3.285 1.745-4.453 1.163-1.169 2.646-1.753 4.447-1.753 1.8 0 3.285.584 4.453 1.753 1.169 1.168 1.753 2.653 1.753 4.454 0 1.8-.584 3.285-1.753 4.454-1.168 1.168-2.653 1.752-4.453 1.752-1.801 0-3.284-.584-4.447-1.752-1.163-1.169-1.745-2.653-1.745-4.454zm10.736 7.626a8.243 8.243 0 0 0 3.202-3.14c.774-1.342 1.161-2.836 1.161-4.485 0-1.649-.387-3.144-1.16-4.484a8.238 8.238 0 0 0-3.203-3.141c-1.36-.754-2.875-1.131-4.544-1.131-1.67 0-3.185.377-4.545 1.13a8.196 8.196 0 0 0-3.195 3.134c-.769 1.335-1.153 2.832-1.153 4.492 0 2.509.847 4.596 2.542 6.26 1.694 1.664 3.81 2.496 6.35 2.496 1.67 0 3.185-.377 4.545-1.13z"/></g><g><path fill="#fff" d="M169.066 34.417c-2.256 0-4.06-.678-5.41-2.034-1.35-1.355-2.026-3.161-2.026-5.417v-9.697h2.64v9.272c0 1.649.43 2.949 1.29 3.9.86.951 2.029 1.426 3.506 1.426 1.487 0 2.658-.478 3.513-1.433.855-.956 1.282-2.254 1.282-3.893v-9.272h2.64v9.697c0 2.256-.672 4.062-2.018 5.417-1.345 1.356-3.151 2.034-5.417 2.034z"/></g><g><path fill="#fff" d="M189.218 17.178h1.487v2.504h-1.714c-1.518 0-2.697.465-3.536 1.396-.84.93-1.26 2.215-1.26 3.854v9.12h-2.656V17.27h1.883l.424 2.55c1.214-1.76 3.005-2.641 5.372-2.641z"/></g><g><path fill="#fff" d="M227.444 34.052h-4.795l-2.14-14.203-6.495 14.158h-1.153l-6.495-14.143-2.14 14.188h-4.795l3.4-21.76h4.718l5.889 13.338 5.903-13.338h4.734z"/></g><g><path fill="#fff" d="M238.158 20.668c1.021 0 1.889.273 2.602.82.713.546 1.227 1.33 1.54 2.352h-8.134c.264-1.002.744-1.78 1.442-2.337.698-.557 1.548-.835 2.55-.835zm8.68 4.932c0-1.609-.36-3.08-1.078-4.416-.718-1.335-1.745-2.4-3.08-3.194-1.336-.794-2.844-1.192-4.522-1.192-1.64 0-3.124.385-4.454 1.154a8.23 8.23 0 0 0-3.127 3.187c-.753 1.355-1.13 2.862-1.13 4.522 0 1.649.38 3.151 1.138 4.507a8.336 8.336 0 0 0 3.134 3.194c1.33.774 2.81 1.161 4.439 1.161 1.942 0 3.662-.538 5.159-1.616 1.497-1.078 2.55-2.532 3.157-4.363h-4.765a3.671 3.671 0 0 1-1.45 1.426c-.622.344-1.323.516-2.101.516-1.103 0-2.016-.305-2.74-.918-.723-.612-1.181-1.49-1.373-2.633h12.701c.061-.434.092-.88.092-1.335z"/></g><g><path fill="#fff" d="M253.59 25.66c0-1.325.433-2.422 1.298-3.292.865-.87 1.955-1.305 3.27-1.305s2.405.437 3.27 1.312c.865.876 1.298 1.971 1.298 3.286s-.433 2.41-1.297 3.285c-.866.875-1.956 1.313-3.27 1.313-1.316 0-2.406-.435-3.271-1.305-.865-.87-1.297-1.968-1.297-3.293zm8.802-7.48c-1.366-.921-2.903-1.382-4.613-1.382a9.151 9.151 0 0 0-3.52.676c-1.094.45-2.027 1.065-2.8 1.844-.774.779-1.384 1.717-1.83 2.814a9.3 9.3 0 0 0-.667 3.529c0 2.549.835 4.669 2.504 6.358 1.67 1.69 3.773 2.534 6.313 2.534 2.023 0 3.778-.632 5.265-1.896l.531 1.395h3.354V11.214h-4.537z"/></g><g><path fill="#fff" d="M271.285 34.052V17.27h4.537v16.783zm0-19.014V10.82h4.522v4.22z"/></g><g><path fill="#fff" d="M284.95 28.916c-.865-.875-1.298-1.97-1.298-3.286 0-1.314.433-2.41 1.297-3.285.866-.875 1.956-1.313 3.271-1.313s2.405.435 3.27 1.305c.865.87 1.297 1.968 1.297 3.293 0 1.326-.432 2.423-1.297 3.293-.865.87-1.955 1.306-3.27 1.306s-2.405-.438-3.27-1.313zm8.414-10.069c-1.538-1.366-3.374-2.049-5.509-2.049-1.659 0-3.161.382-4.506 1.146a8.197 8.197 0 0 0-3.157 3.171c-.758 1.351-1.138 2.856-1.138 4.515 0 1.67.38 3.185 1.138 4.545a8.216 8.216 0 0 0 3.157 3.195c1.345.768 2.847 1.153 4.506 1.153 2.095 0 3.905-.668 5.433-2.003l.395 1.502h3.566V17.238h-3.4z"/></g></g><g><g><path fill="#fff" d="M42.177 23.073c0 10.534-8.57 19.104-19.105 19.104-10.534 0-19.104-8.57-19.104-19.104 0-10.534 8.57-19.105 19.104-19.105 10.535 0 19.105 8.57 19.105 19.105zm3.969 0C46.146 10.35 35.796 0 23.072 0 10.35 0 0 10.35 0 23.073c0 12.722 10.35 23.073 23.072 23.073 12.723 0 23.074-10.351 23.074-23.073z"/></g><g><g><g><path fill="#fff" d="M23.072 37.405V33.31c2.695 0 5.334-1.093 7.24-2.998a10.314 10.314 0 0 0 2.787-5.192H23.072v-4.095h14.333v2.048c0 3.772-1.53 7.466-4.198 10.134a14.432 14.432 0 0 1-10.135 4.198z"/></g><g><path fill="#fff" d="M12.836 23.073H8.74c0-3.773 1.53-7.467 4.198-10.135A14.431 14.431 0 0 1 23.072 8.74v4.094a10.31 10.31 0 0 0-7.239 2.999 10.308 10.308 0 0 0-2.997 7.239z"/></g></g></g></g></g><g><g><g><path fill="#00152b" d="M68.714 23.248h11.669c-.03 1.619-.324 3.118-.88 4.5-.556 1.38-1.308 2.562-2.254 3.543-.945.981-2.086 1.748-3.421 2.299-1.336.55-2.777.827-4.325.827-2.104 0-3.999-.483-5.683-1.45-1.685-.965-3-2.306-3.946-4.021-.946-1.715-1.419-3.64-1.419-5.774 0-2.125.473-4.041 1.42-5.751a10.307 10.307 0 0 1 3.93-4.015c1.673-.965 3.553-1.449 5.637-1.449 2.62 0 4.922.742 6.905 2.224 1.982 1.482 3.211 3.381 3.687 5.698h-2.807c-.466-1.568-1.41-2.835-2.83-3.802-1.422-.965-3.053-1.449-4.894-1.449-2.408 0-4.386.8-5.933 2.398-1.549 1.599-2.323 3.647-2.323 6.146 0 2.53.764 4.59 2.292 6.184 1.527 1.593 3.516 2.39 5.964 2.39 1.993 0 3.71-.538 5.151-1.616 1.443-1.078 2.36-2.507 2.755-4.287h-8.695z"/></g><g><path fill="#00152b" d="M91.658 19.409c1.497 0 2.77.432 3.817 1.297 1.047.865 1.712 2.041 1.995 3.528H85.816c.273-1.467.935-2.637 1.988-3.513 1.052-.875 2.337-1.312 3.854-1.312zm8.452 6.328c0-1.63-.346-3.113-1.039-4.454a7.96 7.96 0 0 0-2.981-3.195c-1.296-.788-2.773-1.183-4.432-1.183-1.599 0-3.052.38-4.362 1.138a8.118 8.118 0 0 0-3.081 3.149c-.744 1.34-1.116 2.83-1.116 4.469 0 1.649.372 3.141 1.116 4.476a8.128 8.128 0 0 0 3.08 3.141c1.31.76 2.764 1.14 4.363 1.14 1.821 0 3.432-.481 4.834-1.443 1.4-.961 2.46-2.306 3.178-4.036h-2.792a5.654 5.654 0 0 1-2.14 2.132c-.9.51-1.926.766-3.08.766-1.578 0-2.906-.47-3.983-1.411-1.077-.942-1.718-2.19-1.92-3.748h14.31c.03-.324.045-.638.045-.941z"/></g><g><path fill="#00152b" d="M110.84 31.609h1.82v2.443h-2.17c-1.81 0-3.235-.523-4.271-1.57-1.037-1.047-1.556-2.481-1.556-4.302V19.65h-2.96v-.47l5.191-5.463h.41v3.55h5.266v2.383h-5.267v8.453c0 1.133.304 2 .91 2.602.608.603 1.483.903 2.627.903z"/></g><g><path fill="#00152b" d="M140.506 12.292l-8.027 13.08v8.68h-2.808v-8.68l-7.966-13.08h2.974l6.404 10.516 6.434-10.516z"/></g><g><path fill="#00152b" d="M142.813 25.66c0-1.8.582-3.285 1.745-4.453 1.163-1.169 2.646-1.753 4.447-1.753 1.8 0 3.285.584 4.453 1.753 1.169 1.168 1.753 2.653 1.753 4.454 0 1.8-.584 3.285-1.753 4.454-1.168 1.168-2.653 1.752-4.453 1.752-1.801 0-3.284-.584-4.447-1.752-1.163-1.169-1.745-2.653-1.745-4.454zm10.736 7.626a8.243 8.243 0 0 0 3.202-3.14c.774-1.342 1.161-2.836 1.161-4.485 0-1.649-.387-3.144-1.16-4.484a8.238 8.238 0 0 0-3.203-3.141c-1.36-.754-2.875-1.131-4.544-1.131-1.67 0-3.185.377-4.545 1.13a8.196 8.196 0 0 0-3.195 3.134c-.769 1.335-1.153 2.832-1.153 4.492 0 2.509.847 4.596 2.542 6.26 1.694 1.664 3.81 2.496 6.35 2.496 1.67 0 3.185-.377 4.545-1.13z"/></g><g><path fill="#00152b" d="M169.066 34.417c-2.256 0-4.06-.678-5.41-2.034-1.35-1.355-2.026-3.161-2.026-5.417v-9.697h2.64v9.272c0 1.649.43 2.949 1.29 3.9.86.951 2.029 1.426 3.506 1.426 1.487 0 2.658-.478 3.513-1.433.855-.956 1.282-2.254 1.282-3.893v-9.272h2.64v9.697c0 2.256-.672 4.062-2.018 5.417-1.345 1.356-3.151 2.034-5.417 2.034z"/></g><g><path fill="#00152b" d="M189.218 17.178h1.487v2.504h-1.714c-1.518 0-2.697.465-3.536 1.396-.84.93-1.26 2.215-1.26 3.854v9.12h-2.656V17.27h1.883l.424 2.55c1.214-1.76 3.005-2.641 5.372-2.641z"/></g><g><path fill="#00152b" d="M227.444 34.052h-4.795l-2.14-14.203-6.495 14.158h-1.153l-6.495-14.143-2.14 14.188h-4.795l3.4-21.76h4.718l5.889 13.338 5.903-13.338h4.734z"/></g><g><path fill="#00152b" d="M238.158 20.668c1.021 0 1.889.273 2.602.82.713.546 1.227 1.33 1.54 2.352h-8.134c.264-1.002.744-1.78 1.442-2.337.698-.557 1.548-.835 2.55-.835zm8.68 4.932c0-1.609-.36-3.08-1.078-4.416-.718-1.335-1.745-2.4-3.08-3.194-1.336-.794-2.844-1.192-4.522-1.192-1.64 0-3.124.385-4.454 1.154a8.23 8.23 0 0 0-3.127 3.187c-.753 1.355-1.13 2.862-1.13 4.522 0 1.649.38 3.151 1.138 4.507a8.336 8.336 0 0 0 3.134 3.194c1.33.774 2.81 1.161 4.439 1.161 1.942 0 3.662-.538 5.159-1.616 1.497-1.078 2.55-2.532 3.157-4.363h-4.765a3.671 3.671 0 0 1-1.45 1.426c-.622.344-1.323.516-2.101.516-1.103 0-2.016-.305-2.74-.918-.723-.612-1.181-1.49-1.373-2.633h12.701c.061-.434.092-.88.092-1.335z"/></g><g><path fill="#00152b" d="M253.59 25.66c0-1.325.433-2.422 1.298-3.292.865-.87 1.955-1.305 3.27-1.305s2.405.437 3.27 1.312c.865.876 1.298 1.971 1.298 3.286s-.433 2.41-1.297 3.285c-.866.875-1.956 1.313-3.27 1.313-1.316 0-2.406-.435-3.271-1.305-.865-.87-1.297-1.968-1.297-3.293zm8.802-7.48c-1.366-.921-2.903-1.382-4.613-1.382a9.151 9.151 0 0 0-3.52.676c-1.094.45-2.027 1.065-2.8 1.844-.774.779-1.384 1.717-1.83 2.814a9.3 9.3 0 0 0-.667 3.529c0 2.549.835 4.669 2.504 6.358 1.67 1.69 3.773 2.534 6.313 2.534 2.023 0 3.778-.632 5.265-1.896l.531 1.395h3.354V11.214h-4.537z"/></g><g><path fill="#00152b" d="M271.285 34.052V17.27h4.537v16.783zm0-19.014V10.82h4.522v4.22z"/></g><g><path fill="#00152b" d="M284.95 28.916c-.865-.875-1.298-1.97-1.298-3.286 0-1.314.433-2.41 1.297-3.285.866-.875 1.956-1.313 3.271-1.313s2.405.435 3.27 1.305c.865.87 1.297 1.968 1.297 3.293 0 1.326-.432 2.423-1.297 3.293-.865.87-1.955 1.306-3.27 1.306s-2.405-.438-3.27-1.313zm8.414-10.069c-1.538-1.366-3.374-2.049-5.509-2.049-1.659 0-3.161.382-4.506 1.146a8.197 8.197 0 0 0-3.157 3.171c-.758 1.351-1.138 2.856-1.138 4.515 0 1.67.38 3.185 1.138 4.545a8.216 8.216 0 0 0 3.157 3.195c1.345.768 2.847 1.153 4.506 1.153 2.095 0 3.905-.668 5.433-2.003l.395 1.502h3.566V17.238h-3.4z"/></g></g><g><g><path fill="#00152b" d="M42.177 23.073c0 10.534-8.57 19.104-19.105 19.104-10.534 0-19.104-8.57-19.104-19.104 0-10.534 8.57-19.105 19.104-19.105 10.535 0 19.105 8.57 19.105 19.105zm3.969 0C46.146 10.35 35.796 0 23.072 0 10.35 0 0 10.35 0 23.073c0 12.722 10.35 23.073 23.072 23.073 12.723 0 23.074-10.351 23.074-23.073z"/></g><g><g><g><path fill="#00152b" d="M23.072 37.405V33.31c2.695 0 5.334-1.093 7.24-2.998a10.314 10.314 0 0 0 2.787-5.192H23.072v-4.095h14.333v2.048c0 3.772-1.53 7.466-4.198 10.134a14.432 14.432 0 0 1-10.135 4.198z"/></g><g><path fill="#00152b" d="M12.836 23.073H8.74c0-3.773 1.53-7.467 4.198-10.135A14.431 14.431 0 0 1 23.072 8.74v4.094a10.31 10.31 0 0 0-7.239 2.999 10.308 10.308 0 0 0-2.997 7.239z"/></g></g></g></g></g></g></g></svg>