<svg xmlns="http://www.w3.org/2000/svg" width="88" height="88" viewBox="0 0 88 88"><g><g><g><path fill="#fff" d="M80.186 44.243c0 19.819-16.123 35.943-35.943 35.943C24.424 80.186 8.3 64.062 8.3 44.243c0-19.82 16.124-35.944 35.943-35.944 19.82 0 35.943 16.124 35.943 35.944zm7.467 0c0-23.936-19.474-43.41-43.41-43.41C20.307.833.834 20.307.834 44.243c0 23.936 19.473 43.409 43.409 43.409s43.41-19.473 43.41-43.41z"/></g><g><g><g><path fill="#fff" d="M44.244 71.208v-7.705c5.07 0 10.033-2.056 13.618-5.641a19.394 19.394 0 0 0 5.246-9.767H44.244V40.39h26.964v3.853c0 7.098-2.879 14.047-7.898 19.066-5.018 5.02-11.968 7.899-19.066 7.899z"/></g><g><path fill="#fff" d="M24.983 44.243h-7.704c0-7.099 2.878-14.048 7.897-19.067 5.02-5.02 11.969-7.898 19.068-7.898v7.704a19.395 19.395 0 0 0-13.62 5.64 19.395 19.395 0 0 0-5.641 13.62z"/></g></g></g></g></g></svg>