<svg xmlns="http://www.w3.org/2000/svg" width="72" height="115" viewBox="0 0 72 115"><g><g><g><path fill="#fff" d="M71.245 60.237a2.376 2.376 0 0 0-4.752 0c0 17.025-13.849 30.874-30.87 30.874-17.023 0-30.871-13.849-30.871-30.874a2.376 2.376 0 0 0-4.752 0c0 18.842 14.713 34.27 33.248 35.5v14.37h-7.126a2.375 2.375 0 0 0 0 4.748H45.12a2.375 2.375 0 1 0 0-4.749h-7.123V95.738c18.535-1.231 33.248-16.659 33.248-35.5z"/></g><g><path fill="#fff" d="M18.998 57.86h2.375a2.376 2.376 0 0 0 2.377-2.375 2.375 2.375 0 0 0-2.377-2.371h-2.375V43.61h2.375a2.373 2.373 0 1 0 0-4.746h-2.375v-9.498h2.375a2.376 2.376 0 1 0 0-4.749h-2.375V22.24c0-9.166 7.459-16.621 16.624-16.621 9.166 0 16.621 7.455 16.621 16.62v2.378H49.87a2.375 2.375 0 0 0 0 4.75h2.374v9.497H49.87a2.372 2.372 0 1 0 0 4.746h2.374v9.504H49.87a2.374 2.374 0 0 0-2.374 2.371 2.375 2.375 0 0 0 2.374 2.374h2.374v2.378c0 9.166-7.455 16.624-16.62 16.624-9.166 0-16.625-7.458-16.625-16.624zm16.624 23.747c11.785 0 21.373-9.585 21.373-21.37V22.24c0-11.785-9.588-21.37-21.373-21.37-11.784 0-21.373 9.585-21.373 21.37v37.997c0 11.785 9.589 21.37 21.373 21.37z"/></g></g></g></svg>