<svg xmlns="http://www.w3.org/2000/svg" width="100" height="108" viewBox="0 0 100 108"><g><g><g><path fill="#fff" d="M96.06 5.266H83.143a1.659 1.659 0 1 0 0 3.318H96.06c.305 0 .553.248.553.553v65.014a1.66 1.66 0 0 0 3.319 0V9.137a3.875 3.875 0 0 0-3.872-3.871z"/></g><g><path fill="#fff" d="M50.78 64.715L20.09 34.027a1.118 1.118 0 0 1 0-1.58l8.405-8.403a1.11 1.11 0 0 1 .789-.327c.299 0 .579.116.79.327l30.689 30.689a1.118 1.118 0 0 1 0 1.58l-8.403 8.402a1.11 1.11 0 0 1-.79.328c-.3 0-.579-.117-.79-.328zm1.206-61.223a1.118 1.118 0 0 1 1.58 0l27.747 27.749a1.117 1.117 0 0 1 0 1.579L62.322 51.812l-7.409-7.409 3.21-3.208a1.584 1.584 0 0 0-2.24-2.24l-3.21 3.208-11.217-11.217 3.21-3.208a1.583 1.583 0 1 0-2.24-2.24l-3.21 3.209L37.51 27l12.63-12.63a1.584 1.584 0 0 0-2.239-2.24L35.27 24.76l-2.276-2.276zm46.361 72.596c-.874 0-1.584.708-1.584 1.583v21.364a5.921 5.921 0 0 1-5.914 5.915 5.921 5.921 0 0 1-5.914-5.915V63.807c0-5.008-4.075-9.082-9.083-9.082S66.77 58.8 66.77 63.807V74.52a5.921 5.921 0 0 1-5.914 5.914 5.921 5.921 0 0 1-5.915-5.914v-7.906l8.061-8.062a4.28 4.28 0 0 0 1.123-4.063L83.554 35.06a4.29 4.29 0 0 0 0-6.06L62.746 8.194H77.01a1.584 1.584 0 1 0 0-3.167H59.578l-3.772-3.773a4.29 4.29 0 0 0-6.06 0L30.32 20.679a4.257 4.257 0 0 0-4.065 1.124l-8.403 8.404a4.289 4.289 0 0 0 0 6.06L28.995 47.41c-4.893 4.78-10.635 9.125-17.085 12.922-1.875 1.104-3.664 2.501-5.316 4.153-2.98 2.98-5.152 6.445-6.117 9.758-1.06 3.641-.564 6.727 1.397 8.688 1.308 1.309 3.104 1.949 5.178 1.949 3.035-.001 6.665-1.374 10.223-4.029a1.585 1.585 0 0 0-1.895-2.538c-4.528 3.379-9.265 4.38-11.266 2.379-1.09-1.091-1.308-3.118-.596-5.563.818-2.81 2.707-5.794 5.316-8.404 1.463-1.462 3.038-2.696 4.683-3.663 6.682-3.934 12.636-8.444 17.718-13.412l3.92 3.92c-4.968 5.082-9.477 11.037-13.411 17.718a22.316 22.316 0 0 1-1.72 2.498 1.584 1.584 0 0 0 2.486 1.963c.74-.935 1.4-1.895 1.963-2.854 3.798-6.45 8.143-12.192 12.923-17.085L48.54 66.955a4.253 4.253 0 0 0 3.03 1.255c.068 0 .136-.007.203-.01v6.32c0 5.007 4.075 9.081 9.083 9.081s9.082-4.074 9.082-9.081V63.807a5.922 5.922 0 0 1 5.915-5.914 5.921 5.921 0 0 1 5.914 5.914v35.228c0 5.008 4.074 9.082 9.082 9.082 5.009 0 9.083-4.074 9.083-9.082V77.67c-.001-.875-.71-1.583-1.585-1.583z"/></g><g><path fill="#fff" d="M30.927 36.545a1.66 1.66 0 0 0-2.347 2.347l17.554 17.554a1.657 1.657 0 0 0 2.346 0 1.66 1.66 0 0 0 0-2.347z"/></g><g><path fill="#fff" d="M88.861 38.435h-.017c-.917 0-1.65.743-1.65 1.66-.001.917.75 1.659 1.667 1.659a1.659 1.659 0 1 0 0-3.319z"/></g><g><path fill="#fff" d="M90.228 42.758a1.653 1.653 0 0 0-1.63 1.68c.011.91.76 1.639 1.667 1.639h.022a1.66 1.66 0 0 0-.02-3.319h-.022z"/></g><g><path fill="#fff" d="M80.79 47.63c-.916 0-1.65.743-1.65 1.66 0 .916.751 1.659 1.668 1.659a1.66 1.66 0 1 0 0-3.319z"/></g></g></g></svg>