<svg xmlns="http://www.w3.org/2000/svg" width="144" height="144" viewBox="0 0 144 144"><g><g><path fill="#00152b" d="M14.028 108.649c-4.64 0-8.417-3.776-8.417-8.417v-8.417h132.426v8.417c0 4.641-3.776 8.417-8.417 8.417zm66.213 18.517H63.407V114.26h16.834zm16.353 11.223H47.051a8.403 8.403 0 0 1 1.988-3.146 8.37 8.37 0 0 1 5.951-2.466h33.668c3.658 0 6.779 2.346 7.936 5.612zm-70.73-97.075l6.681-13.366 6.683 13.366zm-1.736 44.89V46.925h5.612v39.279zm11.223 0V46.925h5.611v39.279zm41.952-5.611c.058 1.842.099 3.718.118 5.61H66.229c.02-1.88.063-3.755.126-5.61zM72.29 52.342c-6.412 0-10.547-6.98-7.297-12.617l7.297-12.634 7.294 12.634c3.236 5.615-.84 12.617-7.294 12.617zm0 5.611c1.019 0 2.035-.117 3.027-.336.521 3.338 1.285 9.243 1.738 17.364H66.612c.475-8.117 1.276-14.114 1.83-17.563 1.241.354 2.536.535 3.848.535zm30.396 28.25V24.48h16.834v5.611h-2.806a2.804 2.804 0 0 0-2.805 2.806 2.804 2.804 0 0 0 2.805 2.805h2.806v8.417h-2.806a2.804 2.804 0 0 0-2.805 2.806 2.804 2.804 0 0 0 2.805 2.806h2.806v8.417h-2.806a2.804 2.804 0 0 0-2.805 2.805 2.804 2.804 0 0 0 2.805 2.806h2.806V74.98h-2.806a2.804 2.804 0 0 0-2.805 2.806 2.804 2.804 0 0 0 2.805 2.806h2.806v5.61zM14.028 5.964H129.62c4.641 0 8.417 3.776 8.417 8.417v71.824h-12.906v-64.53a2.804 2.804 0 0 0-2.805-2.805H99.88a2.804 2.804 0 0 0-2.806 2.805v64.53H83.031a258.2 258.2 0 0 0-.225-8.538c-.491-11.426-1.61-19.08-2.192-22.447 5.79-4.262 7.369-12.162 3.83-18.3l-9.725-16.842a2.806 2.806 0 0 0-4.859 0l-9.729 16.844c-3.336 5.787-2.152 13.282 3.088 17.705-.608 3.357-1.832 11.285-2.364 23.035a243.517 243.517 0 0 0-.237 8.543H46.574V44.119c0-.445-.106-.85-.278-1.21-.007-.015-.012-.03-.02-.045L35.055 20.42a2.805 2.805 0 0 0-5.018 0L18.814 42.864c-.008.015-.012.03-.018.044-.175.364-.279.776-.279 1.211v42.085H5.611V14.38c0-4.641 3.776-8.417 8.417-8.417zM129.62.35H14.028C6.294.351 0 6.645 0 14.38v85.852c0 7.735 6.294 14.028 14.028 14.028h43.768v12.906H54.99c-3.745 0-7.266 1.46-9.917 4.11a13.934 13.934 0 0 0-4.11 9.918A2.804 2.804 0 0 0 43.767 144H99.88a2.804 2.804 0 0 0 2.805-2.806c0-7.734-6.293-14.028-14.028-14.028h-2.806V114.26h43.768c7.735 0 14.029-6.293 14.029-14.028V14.38c0-7.735-6.294-14.029-14.029-14.029z"/></g></g></svg>