<svg xmlns="http://www.w3.org/2000/svg" width="144" height="144" viewBox="0 0 144 144"><g><g><g><path fill="#00152b" d="M12.892 41.472h5.983a2.103 2.103 0 0 0 0-4.206h-5.983a2.103 2.103 0 1 0 0 4.206z"/></g><g><path fill="#00152b" d="M62.077 37.266H25.574a2.103 2.103 0 0 0 0 4.206h36.503a2.103 2.103 0 1 0 0-4.206z"/></g><g><path fill="#00152b" d="M56.533 47.925H43.184a2.102 2.102 0 1 0 0 4.205h13.349a2.102 2.102 0 1 0 0-4.205z"/></g><g><path fill="#00152b" d="M36.202 47.925H32.04a2.102 2.102 0 1 0 0 4.205h4.16a2.103 2.103 0 1 0 0-4.205z"/></g><g><path fill="#00152b" d="M25.344 47.925H12.892a2.103 2.103 0 1 0 0 4.205h12.452a2.102 2.102 0 1 0 0-4.205z"/></g><g><path fill="#00152b" d="M17.473 14.242a1.969 1.969 0 0 1-1.966 1.966 1.968 1.968 0 0 1-1.965-1.966c0-1.084.881-1.965 1.965-1.965 1.083 0 1.966.881 1.966 1.965zm-8.136 0a6.177 6.177 0 0 0 6.17 6.17 6.178 6.178 0 0 0 6.172-6.17 6.179 6.179 0 0 0-6.172-6.171 6.178 6.178 0 0 0-6.17 6.171z"/></g><g><path fill="#00152b" d="M33.183 14.242a1.968 1.968 0 0 1-1.966 1.966 1.969 1.969 0 0 1-1.965-1.966c0-1.084.882-1.965 1.965-1.965 1.084 0 1.966.881 1.966 1.965zm-8.136 0a6.178 6.178 0 0 0 6.171 6.17 6.177 6.177 0 0 0 6.17-6.17 6.178 6.178 0 0 0-6.17-6.171 6.179 6.179 0 0 0-6.17 6.171z"/></g><g><path fill="#00152b" d="M48.894 14.242a1.968 1.968 0 0 1-1.966 1.966 1.969 1.969 0 0 1-1.965-1.966c0-1.084.882-1.965 1.965-1.965 1.085 0 1.966.881 1.966 1.965zm-8.136 0a6.177 6.177 0 0 0 6.17 6.17 6.177 6.177 0 0 0 6.17-6.17 6.178 6.178 0 0 0-6.17-6.171 6.178 6.178 0 0 0-6.17 6.171z"/></g><g><path fill="#00152b" d="M116.864 138.264h7.019a2.103 2.103 0 0 0 0-4.206h-7.019a2.103 2.103 0 1 0 0 4.206z"/></g><g><path fill="#00152b" d="M116.252 65.622h-2.42a2.102 2.102 0 1 0 0 4.205h2.42a2.102 2.102 0 1 0 0-4.205z"/></g><g><path fill="#00152b" d="M126.914 65.622h-4.757a2.102 2.102 0 1 0 0 4.205h4.757a2.102 2.102 0 1 0 0-4.205z"/></g><g><path fill="#00152b" d="M101.277 71.525v-4.551a2.374 2.374 0 0 1 2.37-2.371h33.45a2.375 2.375 0 0 1 2.373 2.37v4.552zm38.192 56.79h-38.192V91.637a2.103 2.103 0 0 0-4.206 0v7.179H4.206V28.603H139.31v32.178a6.545 6.545 0 0 0-2.212-.384h-33.45a6.585 6.585 0 0 0-6.577 6.577v11.86a2.102 2.102 0 1 0 4.206 0V75.73h38.192zm0 8.757a2.373 2.373 0 0 1-2.371 2.37h-33.45a2.373 2.373 0 0 1-2.371-2.37v-4.55h38.192zm-99.124 2.242v-3.842a3.48 3.48 0 0 1 3.476-3.474h53.25v5.074c0 .787.14 1.542.394 2.242zm48.795-19.063v7.54H54.375v-7.54zm4.205 0h3.726v7.54h-3.726zm-84.09-4.206a5.054 5.054 0 0 1-5.05-5.049v-7.975h92.866v13.024zm134.26-106.79c0-5.103-4.151-9.255-9.254-9.255h-17.94a2.102 2.102 0 1 0 0 4.206h17.94a5.054 5.054 0 0 1 5.049 5.049v15.142H4.206V9.255a5.054 5.054 0 0 1 5.049-5.05h93.983a2.102 2.102 0 1 0 0-4.205H9.255C4.15 0 0 4.152 0 9.255v101.741c0 5.103 4.151 9.255 9.255 9.255H50.17v7.54h-6.35c-4.235 0-7.68 3.447-7.68 7.681v4.543a3.509 3.509 0 0 0 3.504 3.505l97.454.128a6.584 6.584 0 0 0 6.577-6.576v-6.653z"/></g><g><path fill="#00152b" d="M105.519 86.088h7.752a2.103 2.103 0 0 0 0-4.205h-7.752a2.102 2.102 0 1 0 0 4.205z"/></g><g><path fill="#00152b" d="M119.294 86.088h3.307a2.103 2.103 0 0 0 0-4.205h-3.307a2.103 2.103 0 0 0 0 4.205z"/></g><g><path fill="#00152b" d="M128.13 86.088h7.097a2.103 2.103 0 1 0 0-4.205h-7.098a2.103 2.103 0 0 0 0 4.205z"/></g><g><path fill="#00152b" d="M105.519 95.544h3.45a2.103 2.103 0 1 0 0-4.206h-3.45a2.102 2.102 0 1 0 0 4.206z"/></g><g><path fill="#00152b" d="M126.746 93.44c0-1.16-.94-2.102-2.102-2.102h-9.874a2.103 2.103 0 0 0 0 4.206h9.874a2.102 2.102 0 0 0 2.102-2.104z"/></g><g><path fill="#00152b" d="M135.227 91.338h-3.9a2.103 2.103 0 0 0 0 4.206h3.9a2.103 2.103 0 1 0 0-4.206z"/></g><g><path fill="#00152b" d="M105.519 104.243h6.9a2.103 2.103 0 0 0 0-4.206h-6.9a2.103 2.103 0 0 0 0 4.206z"/></g><g><path fill="#00152b" d="M118.177 104.243h8.737a2.103 2.103 0 0 0 0-4.206h-8.737a2.103 2.103 0 1 0 0 4.206z"/></g><g><path fill="#00152b" d="M135.227 100.037h-2.684a2.103 2.103 0 0 0 0 4.206h2.684a2.103 2.103 0 1 0 0-4.206z"/></g><g><path fill="#00152b" d="M105.519 113.698h10.555a2.104 2.104 0 1 0 0-4.205h-10.555a2.102 2.102 0 1 0 0 4.205z"/></g><g><path fill="#00152b" d="M124.9 109.493h-2.86a2.103 2.103 0 0 0 0 4.205h2.86a2.103 2.103 0 0 0 0-4.205z"/></g><g><path fill="#00152b" d="M135.227 109.493h-4.983a2.103 2.103 0 0 0 0 4.205h4.983a2.104 2.104 0 1 0 0-4.205z"/></g></g></g></svg>