<svg
   xmlns:dc="http://purl.org/dc/elements/1.1/"
   xmlns:cc="http://creativecommons.org/ns#"
   xmlns:rdf="http://www.w3.org/1999/02/22-rdf-syntax-ns#"
   xmlns:svg="http://www.w3.org/2000/svg"
   xmlns="http://www.w3.org/2000/svg"
   viewBox="0 0 641.44135 641.43732"
   xml:space="preserve"
   id="svg2"
   version="1.1"><defs
     id="defs6"><clipPath
       id="clipPath18"
       clipPathUnits="userSpaceOnUse"><path
         id="path16"
         d="M 0,481.078 H 481.081 V 0 H 0 Z" /></clipPath></defs><g
     transform="matrix(1.3333333,0,0,-1.3333333,0,641.43733)"
     id="g10"><g
       style="fill:#000000"
       id="g12"><g
         style="fill:#000000"
         clip-path="url(#clipPath18)"
         id="g14"><g
           style="fill:#000000"
           transform="translate(393.1445,264.3778)"
           id="g20"><path
             id="path22"
             style="fill:#000000;fill-opacity:1;fill-rule:nonzero;stroke:none"
             d="m 0,0 -176.442,-176.437 c -3.423,-3.434 -7.705,-5.145 -12.848,-5.145 -5.137,0 -9.418,1.711 -12.845,5.145 l -103.357,103.345 c -3.616,3.621 -5.424,7.903 -5.424,12.847 0,4.949 1.808,9.236 5.424,12.854 L -129.05,129.05 c 3.43,3.427 7.714,5.142 12.855,5.142 5.133,0 9.418,-1.715 12.846,-5.142 L 0.002,25.697 C 3.622,22.078 5.43,17.795 5.43,12.847 5.428,7.9 3.621,3.618 0,0 M 77.375,57.1 41.398,92.788 C 30.741,82.132 17.795,76.8 2.57,76.8 c -15.228,0 -28.168,5.332 -38.824,15.988 -10.664,10.66 -15.987,23.601 -15.987,38.83 0,15.23 5.331,28.171 15.987,38.832 l -35.692,35.688 c -7.05,7.04 -15.66,10.562 -25.838,10.562 -10.185,0 -18.794,-3.523 -25.837,-10.562 l -258.958,-258.67 c -7.045,-7.046 -10.566,-15.663 -10.566,-25.837 0,-10.182 3.521,-18.791 10.566,-25.838 l 35.688,-35.977 c 10.661,10.657 23.604,15.988 38.831,15.988 15.227,0 28.167,-5.325 38.827,-15.988 10.656,-10.657 15.986,-23.6 15.986,-38.828 0,-15.228 -5.327,-28.164 -15.986,-38.828 l 35.976,-35.973 c 7.044,-7.043 15.657,-10.565 25.84,-10.565 10.185,0 18.798,3.522 25.837,10.565 L 77.375,5.426 C 84.418,12.468 87.937,21.079 87.937,31.263 87.936,41.446 84.418,50.056 77.375,57.1" /></g><g
           style="fill:#000000"
           transform="translate(276.9551,367.4398)"
           id="g24"><path
             id="path26"
             style="fill:#000000;fill-opacity:1;fill-rule:nonzero;stroke:none"
             d="m 0,0 90.223,-90.218 -163.308,-163.308 -90.218,90.218 z" /></g></g></g></g></svg>