<?xml version="1.0" encoding="UTF-8" standalone="no"?>
<svg
   xmlns:dc="http://purl.org/dc/elements/1.1/"
   xmlns:cc="http://creativecommons.org/ns#"
   xmlns:rdf="http://www.w3.org/1999/02/22-rdf-syntax-ns#"
   xmlns:svg="http://www.w3.org/2000/svg"
   xmlns="http://www.w3.org/2000/svg"
   viewBox="0 0 40 38.812401"
   height="38.812401"
   width="40"
   xml:space="preserve"
   id="svg2"
   version="1.1"><metadata
     id="metadata8"><rdf:RDF><cc:Work
         rdf:about=""><dc:format>image/svg+xml</dc:format><dc:type
           rdf:resource="http://purl.org/dc/dcmitype/StillImage" /><dc:title></dc:title></cc:Work></rdf:RDF></metadata><defs
     id="defs6"><clipPath
       id="clipPath18"
       clipPathUnits="userSpaceOnUse"><path
         id="path16"
         d="M 0,29.109 H 30 V 0 H 0 Z" /></clipPath></defs><g
     transform="matrix(1.3333333,0,0,-1.3333333,0,38.8124)"
     id="g10"><g
       id="g12"><g
         clip-path="url(#clipPath18)"
         id="g14"><g
           transform="translate(15.0001,3.0971)"
           id="g20"><path
             id="path22"
             style="fill:#000000;fill-opacity:1;fill-rule:nonzero;stroke:none"
             d="m 0,0 c -6.511,0 -11.809,5.14 -11.809,11.458 0,6.317 5.298,11.457 11.809,11.457 6.511,0 11.809,-5.14 11.809,-11.457 C 11.809,5.14 6.511,0 0,0 m 0,26.012 c -8.271,0 -15,-6.529 -15,-14.554 0,-8.026 6.729,-14.555 15,-14.555 8.271,0 15,6.529 15,14.555 0,8.025 -6.729,14.554 -15,14.554" /></g><g
           transform="translate(15.0318,23.5487)"
           id="g24"><path
             id="path26"
             style="fill:none;stroke:#000000;stroke-width:2.72300005;stroke-linecap:round;stroke-linejoin:round;stroke-miterlimit:10;stroke-dasharray:none;stroke-opacity:1"
             d="M 0,0 -0.084,-8.915 0,-15.176" /></g></g></g></g></svg>