<svg xmlns="http://www.w3.org/2000/svg" width="98" height="84" viewBox="0 0 98 84"><g><g><path fill="#fff" d="M93.915 70.86l-16.331-6.531V38.51l16.33-6.533zm-20.416 7.098a2.046 2.046 0 0 1-2.042 2.044H6.127a2.046 2.046 0 0 1-2.042-2.044v-53.08c0-1.126.916-2.044 2.041-2.044h65.331c1.126 0 2.042.918 2.042 2.044zM97.1 27.27a2.041 2.041 0 0 0-1.9-.204L77.583 34.11v-9.232a6.133 6.133 0 0 0-6.127-6.124h-3.401L44.098.786c-.064-.051-.145-.062-.215-.105a2.21 2.21 0 0 0-.369-.175A1.99 1.99 0 0 0 43.1.422c-.078-.008-.145-.045-.226-.045H6.126a2.04 2.04 0 0 0-2.04 2.04 2.04 2.04 0 0 0 2.04 2.042h36.066L61.25 18.754H6.126A6.133 6.133 0 0 0 0 24.878v53.08a6.133 6.133 0 0 0 6.126 6.124h65.331a6.133 6.133 0 0 0 6.127-6.124v-9.232l17.615 7.048c.242.097.501.143.757.143A2.039 2.039 0 0 0 98 73.876V28.96c0-.679-.337-1.312-.9-1.692z"/></g></g></svg>