<svg viewBox="0 0 242 255" xmlns="http://www.w3.org/2000/svg" preserveAspectRatio="none" height="0" width="0">
<clipPath id="blog-polygon_3" >
<path d="m 127.35198,254.38081 c -7.70173,-1.07146 -21.60841,-5.1518 -30.436221,-8.93027 C 76.452657,236.69198 59.401487,224.61318 42.120894,206.63462 14.266192,177.6549 0.13773228,145.32107 0.00183201,110.2426 -0.05717496,95.003347 1.2959855,86.268191 5.9861624,71.612246 10.222575,58.374265 15.598949,49.448345 25.265306,39.604806 62.203981,1.9892877 135.76854,-11.200728 183.88775,11.164039 c 13.00706,6.045414 21.53894,12.124484 31.00261,22.089807 18.84704,19.845965 27.08694,42.882751 27.10959,75.791554 0.0128,18.71922 -2.37974,34.96453 -7.77899,52.81823 -14.35069,47.45339 -45.63454,83.75573 -78.94543,91.60956 -6.72167,1.5848 -19.96242,2.01517 -27.92355,0.90762 z"/>
</clipPath>
</svg>

