<svg viewBox="0 0 253.00002 244.63684" xmlns="http://www.w3.org/2000/svg" preserveAspectRatio="none" height="0" width="0">
<clipPath id="blog-polygon_1" >
	<defs>
<path d="M 100.38276,242.97786 C 53.40539,235.82082 20.637941,216.42092 7.3369101,187.89028 1.5531467,175.48413 -0.10120763,167.19984 0.00471794,151.17383 0.15340977,128.67771 4.7043043,111.09494 16.157732,88.765461 32.0127,57.854704 63.044514,24.786377 87.66995,12.560103 111.47198,0.74263663 143.00163,-3.2116603 165.97013,2.7400756 205.7552,13.049426 233.67041,47.087926 247.52778,102.18771 c 9.01423,35.84236 6.90069,65.34826 -6.40648,89.43599 -5.75299,10.41379 -22.47188,26.76712 -34.41317,33.66072 -15.77578,9.10725 -34.8819,15.40902 -55.34902,18.25574 -12.04456,1.67524 -38.18202,1.38692 -50.97635,-0.5623 z"/>
</defs>
</clipPath>
</svg>
