<svg viewBox="0 0 335 352.66339" xmlns="http://www.w3.org/2000/svg" preserveAspectRatio="none" >

<path d="M 176.29303,351.80867 C 165.63154,350.32545 146.38056,344.67704 134.16024,339.44652 105.83322,327.32207 82.229331,310.60141 58.307849,285.71374 19.748654,245.59718 0.19066245,200.83754 0.00253604,152.2785 -0.07914716,131.18284 1.7940295,119.09079 8.2866297,98.802599 14.151085,80.477295 21.593586,68.121166 34.9747,54.494779 86.108816,2.4237112 187.94405,-15.835191 254.55536,15.124296 c 18.00564,8.368652 29.8163,16.783893 42.91683,30.578865 26.08991,27.47272 37.49638,59.362489 37.52774,104.918059 0.0177,25.91297 -3.29427,48.40131 -10.76844,73.11615 -19.86562,65.68961 -63.17178,115.94285 -109.28396,126.81488 -9.30479,2.19384 -27.63393,2.7896 -38.6545,1.25642 z"/>

</svg>

