<svg viewBox="0 0 327.00001 316.19067" xmlns="http://www.w3.org/2000/svg" preserveAspectRatio="none" >

<path d="M 129.74372,314.04647 C 69.025938,304.79606 26.674334,279.72188 9.4828837,242.84631 2.0074267,226.81149 -0.13080986,216.10412 0.00609789,195.39067 0.19828061,166.31465 6.0802667,143.5891 20.883709,114.72847 41.376098,74.776621 81.48441,32.036136 113.31254,16.233798 144.07643,0.95983995 184.82819,-4.15105 214.51475,3.54151 c 51.42181,13.324733 87.50194,57.319157 105.41245,128.53508 11.65081,46.3259 8.91908,84.46198 -8.28031,115.59513 -7.43568,13.45972 -29.04468,34.59624 -44.47868,43.50615 -20.39004,11.77103 -45.08451,19.91601 -71.53806,23.59536 -15.56747,2.16523 -49.34988,1.79258 -65.88643,-0.72676 z"/>

</svg>

