<?xml version="1.0" encoding="UTF-8"?>
<!DOCTYPE svg PUBLIC "-//W3C//DTD SVG 1.1//EN" "http://www.w3.org/Graphics/SVG/1.1/DTD/svg11.dtd">
<svg xmlns="http://www.w3.org/2000/svg" xmlns:dc="http://purl.org/dc/elements/1.1/" xmlns:cc="http://creativecommons.org/ns#" xmlns:rdf="http://www.w3.org/1999/02/22-rdf-syntax-ns#" xmlns:svg="http://www.w3.org/2000/svg">
	<defs><clipPath id="ywxka"><path d="M0 14.12V.108h13.941V14.12z"/></clipPath><clipPath id="clipPath18" clipPathUnits="userSpaceOnUse"><path id="path16" d="M 0,41.999 H 31 V 0 H 0 Z"/></clipPath><clipPath id="dcaca"><path d="M0 14.12V.108h13.941V14.12z"/></clipPath><clipPath id="clipPath18" clipPathUnits="userSpaceOnUse"><path id="path16" d="M 0,481.078 H 481.081 V 0 H 0 Z"/></clipPath><clipPath id="clipPath18" clipPathUnits="userSpaceOnUse"><path id="path16" d="M 0,30 H 30 V 0 H 0 Z"/></clipPath><clipPath id="clipPath18" clipPathUnits="userSpaceOnUse"><path id="path16" d="M 0,30 H 30 V 0 H 0 Z"/></clipPath><clipPath id="clipPath18" clipPathUnits="userSpaceOnUse"><path id="path16" d="M 0,30 H 30 V 0 H 0 Z"/></clipPath><clipPath id="clipPath18" clipPathUnits="userSpaceOnUse"><path id="path16" d="M 0,30 H 30 V 0 H 0 Z"/></clipPath><clipPath id="clipPath18" clipPathUnits="userSpaceOnUse"><path id="path16" d="M 0,30 H 30 V 0 H 0 Z"/></clipPath><clipPath id="clipPath18" clipPathUnits="userSpaceOnUse"><path id="path16" d="M 0,30 H 30 V 0 H 0 Z"/></clipPath><clipPath id="clipPath18" clipPathUnits="userSpaceOnUse"><path id="path16" d="M 0,30 H 30 V 0 H 0 Z"/></clipPath><clipPath id="clipPath18" clipPathUnits="userSpaceOnUse"><path id="path16" d="M 0,30 H 30 V 0 H 0 Z"/></clipPath><clipPath id="clipPath18" clipPathUnits="userSpaceOnUse"><path id="path16" d="M 0,30 H 30 V 0 H 0 Z"/></clipPath><clipPath id="clipPath18" clipPathUnits="userSpaceOnUse"><path id="path16" d="M 0,30 H 30 V 0 H 0 Z"/></clipPath><clipPath id="clipPath18" clipPathUnits="userSpaceOnUse"><path id="path16" d="M 0,30 H 30 V 0 H 0 Z"/></clipPath><clipPath id="clipPath18" clipPathUnits="userSpaceOnUse"><path id="path16" d="M 0,29.109 H 30 V 0 H 0 Z"/></clipPath><clipPath id="clipPath18" clipPathUnits="userSpaceOnUse"><path id="path16" d="M 0,30 H 30 V 0 H 0 Z"/></clipPath><clipPath id="clipPath18" clipPathUnits="userSpaceOnUse"><path id="path16" d="M 0,30 H 30 V 0 H 0 Z"/></clipPath><clipPath id="clipPath18" clipPathUnits="userSpaceOnUse"><path id="path16" d="M 0,30 H 30 V 0 H 0 Z"/></clipPath></defs>
<symbol id="3-layers" viewBox="0 0 12 16"><g><g><g><path fill="#4b647e" d="M9.863 8.228l-3.855 6.437L2.05 8.29a4.563 4.563 0 0 1-.687-2.401 4.584 4.584 0 0 1 4.574-4.575 4.581 4.581 0 0 1 4.572 4.575c0 .826-.226 1.635-.647 2.34zM5.938.406A5.488 5.488 0 0 0 .456 5.888a5.47 5.47 0 0 0 .819 2.883l4.351 7.013c.084.134.23.216.389.216h.003a.457.457 0 0 0 .388-.222l4.241-7.081a5.476 5.476 0 0 0 .774-2.809A5.488 5.488 0 0 0 5.938.406z"/></g><g><path fill="#4b647e" d="M5.938 7.722a1.835 1.835 0 0 1-1.833-1.834 1.84 1.84 0 0 1 1.833-1.833c1.008 0 1.83.825 1.83 1.833 0 .995-.8 1.834-1.83 1.834zm0-4.575a2.744 2.744 0 0 0-2.74 2.741 2.738 2.738 0 0 0 2.74 2.741A2.736 2.736 0 0 0 8.68 5.888a2.744 2.744 0 0 0-2.742-2.741z"/></g></g></g></symbol>
<symbol id="arrow-blog" viewBox="0 0 40 29"><g><g><g><path fill="none" stroke="#008fd1" stroke-linecap="round" stroke-miterlimit="50" stroke-width="2" d="M1.5 14.5h37"/></g><g><path fill="none" stroke="#008fd1" stroke-linecap="round" stroke-miterlimit="50" stroke-width="2" d="M26.5 1.5l12 12"/></g><g><path fill="none" stroke="#008fd1" stroke-linecap="round" stroke-miterlimit="50" stroke-width="2" d="M38.5 15.5l-12 12"/></g></g></g></symbol>
<symbol id="location" viewBox="0 0 12 16"><g><g><g><path fill="#4b647e" d="M9.863 8.228l-3.855 6.437L2.05 8.29a4.563 4.563 0 0 1-.687-2.401 4.584 4.584 0 0 1 4.574-4.575 4.581 4.581 0 0 1 4.572 4.575c0 .826-.226 1.635-.647 2.34zM5.938.406A5.488 5.488 0 0 0 .456 5.888a5.47 5.47 0 0 0 .819 2.883l4.351 7.013c.084.134.23.216.389.216h.003a.457.457 0 0 0 .388-.222l4.241-7.081a5.476 5.476 0 0 0 .774-2.809A5.488 5.488 0 0 0 5.938.406z"/></g><g><path fill="#4b647e" d="M5.938 7.722a1.835 1.835 0 0 1-1.833-1.834 1.84 1.84 0 0 1 1.833-1.833c1.008 0 1.83.825 1.83 1.833 0 .995-.8 1.834-1.83 1.834zm0-4.575a2.744 2.744 0 0 0-2.74 2.741 2.738 2.738 0 0 0 2.74 2.741A2.736 2.736 0 0 0 8.68 5.888a2.744 2.744 0 0 0-2.742-2.741z"/></g></g></g></symbol>
<symbol id="pagi-arr-left" viewBox="0 0 12 16"><g><g><path fill="#008fd1" d="M1.517 9.675a2 2 0 0 1 0-3.152l6.785-5.301a2 2 0 0 1 3.232 1.576v10.601a2 2 0 0 1-3.232 1.577z"/></g></g></symbol>
<symbol id="pagi-arr-right" viewBox="0 0 11 16"><g><g><path fill="#008fd1" d="M9.983 6.523a2 2 0 0 1 0 3.152l-6.785 5.3A2 2 0 0 1-.034 13.4V2.798a2 2 0 0 1 3.232-1.576z"/></g></g></symbol>
<symbol id="phone" viewBox="0 0 14 14"><g><g><g><g><path fill="transparent" d="M0 14.12V.108h13.941V14.12z"/></g><g clip-path="url(#ywxka)"><path fill="#4b647e" d="M12.074 11.877c-.003 0-.003.003 0 0-.115.124-.232.236-.36.36a7.75 7.75 0 0 0-.567.588c-.297.318-.648.468-1.107.468-.044 0-.09 0-.135-.003-.874-.056-1.686-.398-2.296-.689A13.077 13.077 0 0 1 3.266 9.2C2.262 7.989 1.59 6.871 1.146 5.67.873 4.937.773 4.367.816 3.828c.03-.344.163-.63.407-.874L2.227 1.95c.144-.135.297-.209.447-.209.185 0 .335.112.43.206l.008.01c.18.167.35.34.53.526l.28.285.803.804c.312.312.312.6 0 .912-.085.086-.167.17-.253.253-.247.253-.483.489-.739.718-.006.006-.011.01-.014.015-.253.253-.206.5-.153.668l.008.027c.21.506.504.983.951 1.55l.003.003C5.34 8.72 6.197 9.5 7.141 10.097c.121.076.245.138.362.197.106.053.206.103.292.156l.035.02c.1.05.194.074.292.074.244 0 .397-.153.447-.203l1.006-1.007c.1-.1.26-.22.445-.22.182 0 .332.114.424.214l.005.006 1.622 1.622c.303.3.303.61.003.92zM11.02 8.778c-.285-.297-.63-.456-.994-.456-.362 0-.71.156-1.007.453l-.93.927c-.076-.041-.153-.08-.226-.117-.106-.054-.207-.104-.292-.157C6.7 8.875 5.908 8.154 5.15 7.221c-.368-.465-.615-.856-.795-1.253.242-.221.465-.45.683-.672.083-.082.165-.167.247-.25.618-.618.618-1.418 0-2.036l-.803-.804a12.637 12.637 0 0 1-.274-.28c-.176-.182-.362-.37-.553-.547-.285-.282-.627-.432-.986-.432s-.706.15-1 .432l-.006.006L.66 2.395a2.154 2.154 0 0 0-.639 1.368c-.07.86.183 1.66.377 2.184.477 1.286 1.189 2.478 2.251 3.755a13.853 13.853 0 0 0 4.612 3.611c.677.321 1.58.7 2.59.765.062.003.127.006.185.006.68 0 1.251-.244 1.699-.73.003-.006.008-.008.011-.014.153-.186.33-.354.515-.533.127-.12.256-.247.383-.38.291-.303.444-.656.444-1.018 0-.365-.156-.715-.453-1.01z"/></g><g clip-path="url(#ywxka)"><path fill="#4b647e" d="M7.536 3.457c.77.13 1.471.495 2.03 1.054.56.559.922 1.26 1.054 2.03.033.195.2.33.392.33.023 0 .044-.003.067-.006a.398.398 0 0 0 .327-.46 4.538 4.538 0 0 0-1.274-2.456 4.538 4.538 0 0 0-2.458-1.275.4.4 0 0 0-.459.324.393.393 0 0 0 .32.459z"/></g><g clip-path="url(#ywxka)"><path fill="#4b647e" d="M13.928 6.291a7.47 7.47 0 0 0-2.098-4.047A7.47 7.47 0 0 0 7.783.146a.396.396 0 1 0-.13.783 6.687 6.687 0 0 1 3.617 1.875 6.667 6.667 0 0 1 1.875 3.617c.033.194.2.33.392.33.023 0 .044-.004.067-.007a.39.39 0 0 0 .324-.453z"/></g></g></g></g></symbol>
<symbol id="play" viewBox="0 0 41.333332 55.998669"><g transform="matrix(1.3333333,0,0,-1.3333333,0,55.998667)" id="g10"><g id="g12"><g clip-path="url(#clipPath18)" id="g14"><g transform="translate(30.5684,21.8232)" id="g20"><path id="path22" style="fill:#000000;fill-opacity:1;fill-rule:nonzero;stroke:none" d="m 0,0 -29,20 c -0.307,0.211 -0.706,0.233 -1.033,0.062 -0.329,-0.173 -0.535,-0.513 -0.535,-0.885 v -40 c 0,-0.372 0.206,-0.713 0.535,-0.886 0.146,-0.076 0.305,-0.114 0.465,-0.114 0.199,0 0.397,0.059 0.568,0.177 l 29,20 c 0.271,0.187 0.432,0.494 0.432,0.823 C 0.432,-0.494 0.27,-0.187 0,0"/></g></g></g></g></symbol>
<symbol id="tel" viewBox="0 0 14 14"><g><g><g><g><path d="M0 14.12V.108h13.941V14.12z"/></g><g clip-path="url(#dcaca)"><path d="M12.074 11.877c-.003 0-.003.003 0 0-.115.124-.232.236-.36.36a7.75 7.75 0 0 0-.567.588c-.297.318-.648.468-1.107.468-.044 0-.09 0-.135-.003-.874-.056-1.686-.398-2.296-.689A13.077 13.077 0 0 1 3.266 9.2C2.262 7.989 1.59 6.871 1.146 5.67.873 4.937.773 4.367.816 3.828c.03-.344.163-.63.407-.874L2.227 1.95c.144-.135.297-.209.447-.209.185 0 .335.112.43.206l.008.01c.18.167.35.34.53.526l.28.285.803.804c.312.312.312.6 0 .912-.085.086-.167.17-.253.253-.247.253-.483.489-.739.718-.006.006-.011.01-.014.015-.253.253-.206.5-.153.668l.008.027c.21.506.504.983.951 1.55l.003.003C5.34 8.72 6.197 9.5 7.141 10.097c.121.076.245.138.362.197.106.053.206.103.292.156l.035.02c.1.05.194.074.292.074.244 0 .397-.153.447-.203l1.006-1.007c.1-.1.26-.22.445-.22.182 0 .332.114.424.214l.005.006 1.622 1.622c.303.3.303.61.003.92zM11.02 8.778c-.285-.297-.63-.456-.994-.456-.362 0-.71.156-1.007.453l-.93.927c-.076-.041-.153-.08-.226-.117-.106-.054-.207-.104-.292-.157C6.7 8.875 5.908 8.154 5.15 7.221c-.368-.465-.615-.856-.795-1.253.242-.221.465-.45.683-.672.083-.082.165-.167.247-.25.618-.618.618-1.418 0-2.036l-.803-.804a12.637 12.637 0 0 1-.274-.28c-.176-.182-.362-.37-.553-.547-.285-.282-.627-.432-.986-.432s-.706.15-1 .432l-.006.006L.66 2.395a2.154 2.154 0 0 0-.639 1.368c-.07.86.183 1.66.377 2.184.477 1.286 1.189 2.478 2.251 3.755a13.853 13.853 0 0 0 4.612 3.611c.677.321 1.58.7 2.59.765.062.003.127.006.185.006.68 0 1.251-.244 1.699-.73.003-.006.008-.008.011-.014.153-.186.33-.354.515-.533.127-.12.256-.247.383-.38.291-.303.444-.656.444-1.018 0-.365-.156-.715-.453-1.01z"/></g><g clip-path="url(#dcaca)"><path d="M7.536 3.457c.77.13 1.471.495 2.03 1.054.56.559.922 1.26 1.054 2.03.033.195.2.33.392.33.023 0 .044-.003.067-.006a.398.398 0 0 0 .327-.46 4.538 4.538 0 0 0-1.274-2.456 4.538 4.538 0 0 0-2.458-1.275.4.4 0 0 0-.459.324.393.393 0 0 0 .32.459z"/></g><g clip-path="url(#dcaca)"><path d="M13.928 6.291a7.47 7.47 0 0 0-2.098-4.047A7.47 7.47 0 0 0 7.783.146a.396.396 0 1 0-.13.783 6.687 6.687 0 0 1 3.617 1.875 6.667 6.667 0 0 1 1.875 3.617c.033.194.2.33.392.33.023 0 .044-.004.067-.007a.39.39 0 0 0 .324-.453z"/></g></g></g></g></symbol>
<symbol id="ticket" viewBox="0 0 641.44135 641.43732"><g transform="matrix(1.3333333,0,0,-1.3333333,0,641.43733)" id="g10"><g style="fill:#000000" id="g12"><g style="fill:#000000" clip-path="url(#clipPath18)" id="g14"><g style="fill:#000000" transform="translate(393.1445,264.3778)" id="g20"><path id="path22" style="fill:#000000;fill-opacity:1;fill-rule:nonzero;stroke:none" d="m 0,0 -176.442,-176.437 c -3.423,-3.434 -7.705,-5.145 -12.848,-5.145 -5.137,0 -9.418,1.711 -12.845,5.145 l -103.357,103.345 c -3.616,3.621 -5.424,7.903 -5.424,12.847 0,4.949 1.808,9.236 5.424,12.854 L -129.05,129.05 c 3.43,3.427 7.714,5.142 12.855,5.142 5.133,0 9.418,-1.715 12.846,-5.142 L 0.002,25.697 C 3.622,22.078 5.43,17.795 5.43,12.847 5.428,7.9 3.621,3.618 0,0 M 77.375,57.1 41.398,92.788 C 30.741,82.132 17.795,76.8 2.57,76.8 c -15.228,0 -28.168,5.332 -38.824,15.988 -10.664,10.66 -15.987,23.601 -15.987,38.83 0,15.23 5.331,28.171 15.987,38.832 l -35.692,35.688 c -7.05,7.04 -15.66,10.562 -25.838,10.562 -10.185,0 -18.794,-3.523 -25.837,-10.562 l -258.958,-258.67 c -7.045,-7.046 -10.566,-15.663 -10.566,-25.837 0,-10.182 3.521,-18.791 10.566,-25.838 l 35.688,-35.977 c 10.661,10.657 23.604,15.988 38.831,15.988 15.227,0 28.167,-5.325 38.827,-15.988 10.656,-10.657 15.986,-23.6 15.986,-38.828 0,-15.228 -5.327,-28.164 -15.986,-38.828 l 35.976,-35.973 c 7.044,-7.043 15.657,-10.565 25.84,-10.565 10.185,0 18.798,3.522 25.837,10.565 L 77.375,5.426 C 84.418,12.468 87.937,21.079 87.937,31.263 87.936,41.446 84.418,50.056 77.375,57.1"/></g><g style="fill:#000000" transform="translate(276.9551,367.4398)" id="g24"><path id="path26" style="fill:#000000;fill-opacity:1;fill-rule:nonzero;stroke:none" d="m 0,0 90.223,-90.218 -163.308,-163.308 -90.218,90.218 z"/></g></g></g></g></symbol>
<symbol id="time-10-45" viewBox="0 0 40 40"><metadata id="metadata8"><rdf:RDF><cc:Work rdf:about=""><dc:format>image/svg+xml</dc:format><dc:type rdf:resource="http://purl.org/dc/dcmitype/StillImage"/><dc:title/></cc:Work></rdf:RDF></metadata><g transform="matrix(1.3333333,0,0,-1.3333333,0,40)" id="g10"><g id="g12"><g clip-path="url(#clipPath18)" id="g14"><g transform="translate(15.0001,3.1918)" id="g20"><path id="path22" style="fill:#000000;fill-opacity:1;fill-rule:nonzero;stroke:none" d="m 0,0 c -6.511,0 -11.809,5.297 -11.809,11.808 0,6.511 5.298,11.808 11.809,11.808 6.511,0 11.809,-5.297 11.809,-11.808 C 11.809,5.297 6.511,0 0,0 m 0,26.808 c -8.271,0 -15,-6.729 -15,-15 0,-8.271 6.729,-15 15,-15 8.271,0 15,6.729 15,15 0,8.271 -6.729,15 -15,15"/></g><g transform="translate(5.8306,15.122)" id="g24"><path id="path26" style="fill:none;stroke:#000000;stroke-width:2.76399994;stroke-linecap:round;stroke-linejoin:round;stroke-miterlimit:10;stroke-dasharray:none;stroke-opacity:1" d="M 0,0 9.117,-0.04 4.269,4.24"/></g></g></g></g></symbol>
<symbol id="time-11-15" viewBox="0 0 40 40"><metadata id="metadata8"><rdf:RDF><cc:Work rdf:about=""><dc:format>image/svg+xml</dc:format><dc:type rdf:resource="http://purl.org/dc/dcmitype/StillImage"/><dc:title/></cc:Work></rdf:RDF></metadata><g transform="matrix(1.3333333,0,0,-1.3333333,0,40)" id="g10"><g id="g12"><g clip-path="url(#clipPath18)" id="g14"><g transform="translate(15.0001,3.1919)" id="g20"><path id="path22" style="fill:#000000;fill-opacity:1;fill-rule:nonzero;stroke:none" d="m 0,0 c -6.511,0 -11.809,5.297 -11.809,11.808 0,6.511 5.298,11.808 11.809,11.808 6.511,0 11.809,-5.297 11.809,-11.808 C 11.809,5.297 6.511,0 0,0 m 0,26.808 c -8.271,0 -15,-6.729 -15,-15 0,-8.271 6.729,-15 15,-15 8.271,0 15,6.729 15,15 0,8.271 -6.729,15 -15,15"/></g><g transform="translate(23.4654,15.1221)" id="g24"><path id="path26" style="fill:none;stroke:#000000;stroke-width:2.76399994;stroke-linecap:round;stroke-linejoin:round;stroke-miterlimit:10;stroke-dasharray:none;stroke-opacity:1" d="m 0,0 -8.518,-0.04 -3.443,5.701"/></g></g></g></g></symbol>
<symbol id="time-12-30" viewBox="0 0 40 40"><metadata id="metadata8"><rdf:RDF><cc:Work rdf:about=""><dc:format>image/svg+xml</dc:format><dc:type rdf:resource="http://purl.org/dc/dcmitype/StillImage"/><dc:title/></cc:Work></rdf:RDF></metadata><g transform="matrix(1.3333333,0,0,-1.3333333,0,40)" id="g10"><g id="g12"><g clip-path="url(#clipPath18)" id="g14"><g transform="translate(15.0001,3.1919)" id="g20"><path id="path22" style="fill:#000000;fill-opacity:1;fill-rule:nonzero;stroke:none" d="m 0,0 c -6.511,0 -11.809,5.297 -11.809,11.808 0,6.511 5.298,11.808 11.809,11.808 6.511,0 11.809,-5.297 11.809,-11.808 C 11.809,5.297 6.511,0 0,0 m 0,26.808 c -8.271,0 -15,-6.729 -15,-15 0,-8.271 6.729,-15 15,-15 8.271,0 15,6.729 15,15 0,8.271 -6.729,15 -15,15"/></g><g transform="translate(15.0318,5.7691)" id="g24"><path id="path26" style="fill:none;stroke:#000000;stroke-width:2.76399994;stroke-linecap:round;stroke-linejoin:round;stroke-miterlimit:10;stroke-dasharray:none;stroke-opacity:1" d="m 0,0 -0.084,9.313 1.499,6.333"/></g></g></g></g></symbol>
<symbol id="time-13-30" viewBox="0 0 40 40"><metadata id="metadata8"><rdf:RDF><cc:Work rdf:about=""><dc:format>image/svg+xml</dc:format><dc:type rdf:resource="http://purl.org/dc/dcmitype/StillImage"/><dc:title/></cc:Work></rdf:RDF></metadata><g transform="matrix(1.3333333,0,0,-1.3333333,0,40)" id="g10"><g id="g12"><g clip-path="url(#clipPath18)" id="g14"><g transform="translate(15.0001,3.1919)" id="g20"><path id="path22" style="fill:#000000;fill-opacity:1;fill-rule:nonzero;stroke:none" d="m 0,0 c -6.511,0 -11.809,5.297 -11.809,11.808 0,6.511 5.298,11.808 11.809,11.808 6.511,0 11.809,-5.297 11.809,-11.808 C 11.809,5.297 6.511,0 0,0 m 0,26.808 c -8.271,0 -15,-6.729 -15,-15 0,-8.271 6.729,-15 15,-15 8.271,0 15,6.729 15,15 0,8.271 -6.729,15 -15,15"/></g><g transform="translate(15.0318,5.769)" id="g24"><path id="path26" style="fill:none;stroke:#000000;stroke-width:2.76399994;stroke-linecap:round;stroke-linejoin:round;stroke-miterlimit:10;stroke-dasharray:none;stroke-opacity:1" d="M 0,0 -0.084,9.313 3.511,14.87"/></g></g></g></g></symbol>
<symbol id="time-14-15" viewBox="0 0 40 40"><metadata id="metadata8"><rdf:RDF><cc:Work rdf:about=""><dc:format>image/svg+xml</dc:format><dc:type rdf:resource="http://purl.org/dc/dcmitype/StillImage"/><dc:title/></cc:Work></rdf:RDF></metadata><g transform="matrix(1.3333333,0,0,-1.3333333,0,40)" id="g10"><g id="g12"><g clip-path="url(#clipPath18)" id="g14"><g transform="translate(15.0001,3.1919)" id="g20"><path id="path22" style="fill:#000000;fill-opacity:1;fill-rule:nonzero;stroke:none" d="m 0,0 c -6.511,0 -11.809,5.297 -11.809,11.808 0,6.511 5.298,11.808 11.809,11.808 6.511,0 11.809,-5.297 11.809,-11.808 C 11.809,5.297 6.511,0 0,0 m 0,26.808 c -8.271,0 -15,-6.729 -15,-15 0,-8.271 6.729,-15 15,-15 8.271,0 15,6.729 15,15 0,8.271 -6.729,15 -15,15"/></g><g transform="translate(23.7823,15.1221)" id="g24"><path id="path26" style="fill:none;stroke:#000000;stroke-width:2.76399994;stroke-linecap:round;stroke-linejoin:round;stroke-miterlimit:10;stroke-dasharray:none;stroke-opacity:1" d="m 0,0 -8.835,-0.04 5.797,3.06"/></g></g></g></g></symbol>
<symbol id="time-14-45" viewBox="0 0 40 40"><metadata id="metadata8"><rdf:RDF><cc:Work rdf:about=""><dc:format>image/svg+xml</dc:format><dc:type rdf:resource="http://purl.org/dc/dcmitype/StillImage"/><dc:title/></cc:Work></rdf:RDF></metadata><g transform="matrix(1.3333333,0,0,-1.3333333,0,40)" id="g10"><g id="g12"><g clip-path="url(#clipPath18)" id="g14"><g transform="translate(15.0001,3.1917)" id="g20"><path id="path22" style="fill:#000000;fill-opacity:1;fill-rule:nonzero;stroke:none" d="m 0,0 c -6.511,0 -11.809,5.297 -11.809,11.808 0,6.512 5.298,11.809 11.809,11.809 6.511,0 11.809,-5.297 11.809,-11.809 C 11.809,5.297 6.511,0 0,0 m 0,26.808 c -8.271,0 -15,-6.729 -15,-15 0,-8.271 6.729,-15 15,-15 8.271,0 15,6.729 15,15 0,8.271 -6.729,15 -15,15"/></g><g transform="translate(5.9883,15.1219)" id="g24"><path id="path26" style="fill:none;stroke:#000000;stroke-width:2.76399994;stroke-linecap:round;stroke-linejoin:round;stroke-miterlimit:10;stroke-dasharray:none;stroke-opacity:1" d="m 0,0 8.959,-0.04 6.253,1.883"/></g></g></g></g></symbol>
<symbol id="time-15-15" viewBox="0 0 40 40"><metadata id="metadata8"><rdf:RDF><cc:Work rdf:about=""><dc:format>image/svg+xml</dc:format><dc:type rdf:resource="http://purl.org/dc/dcmitype/StillImage"/><dc:title/></cc:Work></rdf:RDF></metadata><g transform="matrix(1.3333333,0,0,-1.3333333,0,40)" id="g10"><g id="g12"><g clip-path="url(#clipPath18)" id="g14"><g transform="translate(15.0001,3.192)" id="g20"><path id="path22" style="fill:#000000;fill-opacity:1;fill-rule:nonzero;stroke:none" d="m 0,0 c -6.511,0 -11.809,5.297 -11.809,11.808 0,6.511 5.298,11.808 11.809,11.808 6.511,0 11.809,-5.297 11.809,-11.808 C 11.809,5.297 6.511,0 0,0 m 0,26.808 c -8.271,0 -15,-6.729 -15,-15 0,-8.271 6.729,-15 15,-15 8.271,0 15,6.729 15,15 0,8.271 -6.729,15 -15,15"/></g><g transform="translate(24.6026,15.1221)" id="g24"><path id="path26" style="fill:none;stroke:#000000;stroke-width:2.76399994;stroke-linecap:round;stroke-linejoin:round;stroke-miterlimit:10;stroke-dasharray:none;stroke-opacity:1" d="m 0,0 -9.655,-0.04 6.454,-1.772"/></g></g></g></g></symbol>
<symbol id="time-16-00" viewBox="0 0 40 40"><metadata id="metadata8"><rdf:RDF><cc:Work rdf:about=""><dc:format>image/svg+xml</dc:format><dc:type rdf:resource="http://purl.org/dc/dcmitype/StillImage"/><dc:title/></cc:Work></rdf:RDF></metadata><g transform="matrix(1.3333333,0,0,-1.3333333,0,40)" id="g10"><g id="g12"><g clip-path="url(#clipPath18)" id="g14"><g transform="translate(15.0001,3.1915)" id="g20"><path id="path22" style="fill:#000000;fill-opacity:1;fill-rule:nonzero;stroke:none" d="m 0,0 c -6.511,0 -11.809,5.297 -11.809,11.809 0,6.511 5.298,11.808 11.809,11.808 6.511,0 11.809,-5.297 11.809,-11.808 C 11.809,5.297 6.511,0 0,0 m 0,26.809 c -8.271,0 -15,-6.729 -15,-15 0,-8.271 6.729,-15 15,-15 8.271,0 15,6.729 15,15 0,8.271 -6.729,15 -15,15"/></g><g transform="translate(15.0318,24.2472)" id="g24"><path id="path26" style="fill:none;stroke:#000000;stroke-width:2.76399994;stroke-linecap:round;stroke-linejoin:round;stroke-miterlimit:10;stroke-dasharray:none;stroke-opacity:1" d="m 0,0 -0.084,-9.165 6.085,-3.1"/></g></g></g></g></symbol>
<symbol id="time-16-30" viewBox="0 0 40 40"><metadata id="metadata8"><rdf:RDF><cc:Work rdf:about=""><dc:format>image/svg+xml</dc:format><dc:type rdf:resource="http://purl.org/dc/dcmitype/StillImage"/><dc:title/></cc:Work></rdf:RDF></metadata><g transform="matrix(1.3333333,0,0,-1.3333333,0,40)" id="g10"><g id="g12"><g clip-path="url(#clipPath18)" id="g14"><g transform="translate(15.0001,3.1918)" id="g20"><path id="path22" style="fill:#000000;fill-opacity:1;fill-rule:nonzero;stroke:none" d="m 0,0 c -6.511,0 -11.809,5.297 -11.809,11.808 0,6.511 5.298,11.808 11.809,11.808 6.511,0 11.809,-5.297 11.809,-11.808 C 11.809,5.297 6.511,0 0,0 m 0,26.808 c -8.271,0 -15,-6.729 -15,-15 0,-8.271 6.729,-15 15,-15 8.271,0 15,6.729 15,15 0,8.271 -6.729,15 -15,15"/></g><g transform="translate(15.0318,5.7304)" id="g24"><path id="path26" style="fill:none;stroke:#000000;stroke-width:2.76399994;stroke-linecap:round;stroke-linejoin:round;stroke-miterlimit:10;stroke-dasharray:none;stroke-opacity:1" d="M 0,0 -0.084,9.352 5.261,5.038"/></g></g></g></g></symbol>
<symbol id="time-16-50" viewBox="0 0 40 40"><metadata id="metadata8"><rdf:RDF><cc:Work rdf:about=""><dc:format>image/svg+xml</dc:format><dc:type rdf:resource="http://purl.org/dc/dcmitype/StillImage"/><dc:title/></cc:Work></rdf:RDF></metadata><g transform="matrix(1.3333333,0,0,-1.3333333,0,40)" id="g10"><g id="g12"><g clip-path="url(#clipPath18)" id="g14"><g transform="translate(15.0001,3.1918)" id="g20"><path id="path22" style="fill:#000000;fill-opacity:1;fill-rule:nonzero;stroke:none" d="m 0,0 c -6.511,0 -11.809,5.297 -11.809,11.808 0,6.511 5.298,11.809 11.809,11.809 6.511,0 11.809,-5.298 11.809,-11.809 C 11.809,5.297 6.511,0 0,0 m 0,26.808 c -8.271,0 -15,-6.729 -15,-15 0,-8.271 6.729,-15 15,-15 8.271,0 15,6.729 15,15 0,8.271 -6.729,15 -15,15"/></g><g transform="translate(6.9864,19.1766)" id="g24"><path id="path26" style="fill:none;stroke:#000000;stroke-width:2.76399994;stroke-linecap:round;stroke-linejoin:round;stroke-miterlimit:10;stroke-dasharray:none;stroke-opacity:1" d="m 0,0 7.961,-4.095 4.398,-5.12"/></g></g></g></g></symbol>
<symbol id="time-17-00" viewBox="0 0 40 40"><metadata id="metadata8"><rdf:RDF><cc:Work rdf:about=""><dc:format>image/svg+xml</dc:format><dc:type rdf:resource="http://purl.org/dc/dcmitype/StillImage"/><dc:title/></cc:Work></rdf:RDF></metadata><g transform="matrix(1.3333333,0,0,-1.3333333,0,40)" id="g10"><g id="g12"><g clip-path="url(#clipPath18)" id="g14"><g transform="translate(15.0001,3.192)" id="g20"><path id="path22" style="fill:#000000;fill-opacity:1;fill-rule:nonzero;stroke:none" d="m 0,0 c -6.511,0 -11.809,5.297 -11.809,11.808 0,6.511 5.298,11.808 11.809,11.808 6.511,0 11.809,-5.297 11.809,-11.808 C 11.809,5.297 6.511,0 0,0 m 0,26.808 c -8.271,0 -15,-6.729 -15,-15 0,-8.271 6.729,-15 15,-15 8.271,0 15,6.729 15,15 0,8.271 -6.729,15 -15,15"/></g><g transform="translate(15.0318,24.2691)" id="g24"><path id="path26" style="fill:none;stroke:#000000;stroke-width:2.76399994;stroke-linecap:round;stroke-linejoin:round;stroke-miterlimit:10;stroke-dasharray:none;stroke-opacity:1" d="m 0,0 -0.084,-9.187 3.551,-5.806"/></g></g></g></g></symbol>
<symbol id="time-18-00" viewBox="0 0 40 38.812401"><metadata id="metadata8"><rdf:RDF><cc:Work rdf:about=""><dc:format>image/svg+xml</dc:format><dc:type rdf:resource="http://purl.org/dc/dcmitype/StillImage"/><dc:title/></cc:Work></rdf:RDF></metadata><g transform="matrix(1.3333333,0,0,-1.3333333,0,38.8124)" id="g10"><g id="g12"><g clip-path="url(#clipPath18)" id="g14"><g transform="translate(15.0001,3.0971)" id="g20"><path id="path22" style="fill:#000000;fill-opacity:1;fill-rule:nonzero;stroke:none" d="m 0,0 c -6.511,0 -11.809,5.14 -11.809,11.458 0,6.317 5.298,11.457 11.809,11.457 6.511,0 11.809,-5.14 11.809,-11.457 C 11.809,5.14 6.511,0 0,0 m 0,26.012 c -8.271,0 -15,-6.529 -15,-14.554 0,-8.026 6.729,-14.555 15,-14.555 8.271,0 15,6.529 15,14.555 0,8.025 -6.729,14.554 -15,14.554"/></g><g transform="translate(15.0318,23.5487)" id="g24"><path id="path26" style="fill:none;stroke:#000000;stroke-width:2.72300005;stroke-linecap:round;stroke-linejoin:round;stroke-miterlimit:10;stroke-dasharray:none;stroke-opacity:1" d="M 0,0 -0.084,-8.915 0,-15.176"/></g></g></g></g></symbol>
<symbol id="time-8-00" viewBox="0 0 40 40"><metadata id="metadata8"><rdf:RDF><cc:Work rdf:about=""><dc:format>image/svg+xml</dc:format><dc:type rdf:resource="http://purl.org/dc/dcmitype/StillImage"/><dc:title/></cc:Work></rdf:RDF></metadata><g transform="matrix(1.3333333,0,0,-1.3333333,0,40)" id="g10"><g id="g12"><g clip-path="url(#clipPath18)" id="g14"><g transform="translate(15.0001,3.1918)" id="g20"><path id="path22" style="fill:#000000;fill-opacity:1;fill-rule:nonzero;stroke:none" d="m 0,0 c -6.511,0 -11.809,5.297 -11.809,11.808 0,6.511 5.298,11.809 11.809,11.809 6.511,0 11.809,-5.298 11.809,-11.809 C 11.809,5.297 6.511,0 0,0 m 0,26.808 c -8.271,0 -15,-6.729 -15,-15 0,-8.271 6.729,-15 15,-15 8.271,0 15,6.729 15,15 0,8.271 -6.729,15 -15,15"/></g><g transform="translate(14.9473,23.3905)" id="g24"><path id="path26" style="fill:none;stroke:#000000;stroke-width:2.76399994;stroke-linecap:round;stroke-linejoin:round;stroke-miterlimit:10;stroke-dasharray:none;stroke-opacity:1" d="m 0,0 v -8.309 l -4.951,-2.746"/></g></g></g></g></symbol>
<symbol id="time-9-15" viewBox="0 0 40 40"><metadata id="metadata8"><rdf:RDF><cc:Work rdf:about=""><dc:format>image/svg+xml</dc:format><dc:type rdf:resource="http://purl.org/dc/dcmitype/StillImage"/><dc:title/></cc:Work></rdf:RDF></metadata><g transform="matrix(1.3333333,0,0,-1.3333333,0,40)" id="g10"><g id="g12"><g clip-path="url(#clipPath18)" id="g14"><g transform="translate(15.0001,3.1915)" id="g20"><path id="path22" style="fill:#000000;fill-opacity:1;fill-rule:nonzero;stroke:none" d="m 0,0 c -6.511,0 -11.809,5.297 -11.809,11.809 0,6.511 5.298,11.808 11.809,11.808 6.511,0 11.809,-5.297 11.809,-11.808 C 11.809,5.297 6.511,0 0,0 m 0,26.809 c -8.271,0 -15,-6.729 -15,-15 0,-8.271 6.729,-15 15,-15 8.271,0 15,6.729 15,15 0,8.271 -6.729,15 -15,15"/></g><g transform="translate(23.5972,15.1217)" id="g24"><path id="path26" style="fill:none;stroke:#000000;stroke-width:2.76399994;stroke-linecap:round;stroke-linejoin:round;stroke-miterlimit:10;stroke-dasharray:none;stroke-opacity:1" d="m 0,0 -8.65,-0.04 -6.44,0.772"/></g></g></g></g></symbol>
<symbol id="time-9-30" viewBox="0 0 40 40"><metadata id="metadata8"><rdf:RDF><cc:Work rdf:about=""><dc:format>image/svg+xml</dc:format><dc:type rdf:resource="http://purl.org/dc/dcmitype/StillImage"/><dc:title/></cc:Work></rdf:RDF></metadata><g transform="matrix(1.3333333,0,0,-1.3333333,0,40)" id="g10"><g id="g12"><g clip-path="url(#clipPath18)" id="g14"><g transform="translate(15.0001,3.1919)" id="g20"><path id="path22" style="fill:#000000;fill-opacity:1;fill-rule:nonzero;stroke:none" d="m 0,0 c -6.511,0 -11.809,5.297 -11.809,11.808 0,6.511 5.298,11.808 11.809,11.808 6.511,0 11.809,-5.297 11.809,-11.808 C 11.809,5.297 6.511,0 0,0 m 0,26.808 c -8.271,0 -15,-6.729 -15,-15 0,-8.271 6.729,-15 15,-15 8.271,0 15,6.729 15,15 0,8.271 -6.729,15 -15,15"/></g><g transform="translate(15.0318,6.4483)" id="g24"><path id="path26" style="fill:none;stroke:#000000;stroke-width:2.76399994;stroke-linecap:round;stroke-linejoin:round;stroke-miterlimit:10;stroke-dasharray:none;stroke-opacity:1" d="m 0,0 -0.084,8.634 -6.44,1.245"/></g></g></g></g></symbol>
</svg>